<svg width="20" height="29" viewBox="0 0 20 29" fill="none" xmlns="http://www.w3.org/2000/svg">
<path d="M6 24H14V26C14 26.5304 13.7893 27.0391 13.4142 27.4142C13.0391 27.7893 12.5304 28 12 28H8C7.46957 28 6.96086 27.7893 6.58579 27.4142C6.21071 27.0391 6 26.5304 6 26V24Z" stroke="#F4F8FC" stroke-width="2" stroke-linecap="round" stroke-linejoin="round"/>
<path d="M19 11C19.0006 9.79416 18.7588 8.60051 18.2891 7.48992C17.8194 6.37933 17.1314 5.37445 16.2657 4.53495C15.4001 3.69546 14.3747 3.03847 13.2502 2.60301C12.1257 2.16754 10.9252 1.96248 9.72 1.99999C7.39019 2.09725 5.18661 3.08516 3.564 4.75987C1.9414 6.43458 1.0236 8.66827 1 11C1.00635 12.3711 1.32588 13.7226 1.9342 14.9513C2.54251 16.1801 3.42353 17.2536 4.51 18.09C4.98364 18.4631 5.36459 18.9406 5.62307 19.4853C5.88155 20.03 6.01055 20.6272 6 21.23V24H14V21.23C14.0044 20.6182 14.147 20.0153 14.4171 19.4664C14.6872 18.9175 15.0779 18.4367 15.56 18.06C16.6296 17.2197 17.4949 16.1478 18.0907 14.925C18.6865 13.7022 18.9974 12.3602 19 11V11Z" stroke="#F4F8FC" stroke-width="2" stroke-linecap="round" stroke-linejoin="round"/>
<path d="M10 24V16" stroke="#F4F8FC" stroke-width="2" stroke-linecap="round" stroke-linejoin="round"/>
<path d="M12 12C12 10.8954 11.1046 10 10 10C8.89543 10 8 10.8954 8 12V14C8 15.1046 8.89543 16 10 16C11.1046 16 12 15.1046 12 14V12Z" stroke="#F4F8FC" stroke-width="2" stroke-linecap="round" stroke-linejoin="round"/>
</svg>
